<?xml version="1.0" encoding="utf-8"?>
<!-- Generator: Adobe Illustrator 25.4.1, SVG Export Plug-In . SVG Version: 6.00 Build 0)  -->
<svg version="1.1" id="Layer_1" xmlns="http://www.w3.org/2000/svg" xmlns:xlink="http://www.w3.org/1999/xlink" x="0px" y="0px"
	 viewBox="0 0 21.8 627" style="enable-background:new 0 0 21.8 627;" xml:space="preserve">
<style type="text/css">
	.st0{fill:#392816;stroke:#392816;stroke-miterlimit:10;}
	.st1{fill:none;stroke:#392816;stroke-width:0.25;stroke-miterlimit:10;}
	.st2{fill:#392816;stroke:#392816;stroke-width:0.25;stroke-miterlimit:10;}
	.st3{fill:#392816;stroke:#392816;stroke-width:0.5;stroke-miterlimit:10;}
	.st4{fill:#392713;stroke:#392816;stroke-width:0.25;stroke-miterlimit:10;}
</style>
<path class="st0" d="M1.8,626.5H1.3c-0.4,0-0.7-0.3-0.7-0.7V1.3c0-0.4,0.3-0.7,0.7-0.7h0.5c0.4,0,0.7,0.3,0.7,0.7v624.5
	C2.5,626.2,2.2,626.5,1.8,626.5z"/>
<path class="st0" d="M20.7,626.5H20c-0.3,0-0.6-0.3-0.6-0.6V1.2c0-0.3,0.3-0.6,0.6-0.6h0.7c0.3,0,0.6,0.3,0.6,0.6v624.7
	C21.3,626.2,21,626.5,20.7,626.5z"/>
<path class="st1" d="M2,626.6c1.2,0.1,3.1,0.1,4.7,0.1c3.1,0,6.2,0,9.3,0c1.5,0,3.1-0.1,4.3-0.1"/>
<path class="st0" d="M-1.9,646"/>
<path class="st1" d="M2.5,3c1.2,1.1,3.1,1.3,4.7,1.6c3.1,0.5,6.2,0.5,9.3,0C17.9,4.3,19.5,4,20.7,3"/>
<path class="st2" d="M5.3,4.3v622.4c0,0,0,0,0,0C5.4,418.9,5.4,212.3,5.3,4.3z"/>
<path class="st3" d="M5.3,2.6"/>
<path class="st2" d="M7.6,626.7V4.7C7.5,212.1,7.5,419.4,7.6,626.7C7.6,626.7,7.6,626.7,7.6,626.7z"/>
<path class="st3" d="M8.2,3.1"/>
<path class="st2" d="M9.8,626.7c0-208,0-414.6,0-621.7L9.8,626.7C9.8,626.7,9.8,626.7,9.8,626.7z"/>
<path class="st2" d="M12.1,626.6V5C12,212,12,419.5,12.1,626.6C12.1,626.6,12.1,626.6,12.1,626.6z"/>
<path class="st2" d="M14.3,626.8C14.4,420,14.4,212,14.3,4.9L14.3,626.8C14.3,626.8,14.3,626.8,14.3,626.8z"/>
<path class="st2" d="M16.5,626.7c0.1-207.5,0.1-414.8,0-622.2L16.5,626.7C16.5,626.7,16.5,626.7,16.5,626.7z"/>
<line class="st1" x1="19.4" y1="0.4" x2="14.7" y2="4.8"/>
<path class="st4" d="M19,1.7c0.1,0.6,0.1,1.2,0,1.8c0,0.1,0,0.3-0.2,0.4c-0.1,0-0.1,0-0.2,0.1c-0.4,0.1-0.8,0.2-1.2,0.3
	c-0.2,0.1-0.5,0.1-0.7,0.1c-0.6,0.1-1.2,0.2-1.8,0.3c0-0.1,0.1-0.2,0.2-0.3c0.6-0.5,1.2-1,1.7-1.6c0.6-0.5,1.1-1.1,1.7-1.6
	c0.1-0.1,0.2-0.1,0.2-0.2C18.9,1,19,1,19,1c0,0,0,0,0,0.1C19,1.3,19,1.5,19,1.7z"/>
</svg>
