<svg id="World" xmlns="http://www.w3.org/2000/svg" viewBox="0 0 1265.5 790.44"><path id="Australia" d="M1486.87,841.73l-61.27,5a6.44,6.44,0,0,1-6.95-6.93L1423,784.2a11.35,11.35,0,0,1,5.64-9l69.62-40.41a7.75,7.75,0,0,1,9.27,1.12L1521,749a7.81,7.81,0,0,0,9.28,1.16l11.08-6.3a8.92,8.92,0,0,1,12.22,3.43l30,54a13.29,13.29,0,0,1,.42,12l-22.88,49.11a11,11,0,0,1-8,6.2l-33.81,6.17a10.9,10.9,0,0,1-11.77-6l-10.16-21.08A10.7,10.7,0,0,0,1486.87,841.73Z" transform="translate(-327.25 -144.78)" style="fill:#fbc02d;stroke:#fbc02d;stroke-miterlimit:10;stroke-width:15px"/><path id="Europe" d="M1030.37,498.08h-8a20.79,20.79,0,0,1-11.79-3.68l-27.27-18.88a17.49,17.49,0,0,0-16.85-1.7L907.8,498.89a5.28,5.28,0,0,1-7.25-3.84l-4.75-24.61a11.16,11.16,0,0,1,5.45-11.83l29-16.48a3.61,3.61,0,0,0,.8-.61l29.59-29.58a16.91,16.91,0,0,0,3.56-18.66l-6.56-15.2a17.23,17.23,0,0,1,3.56-18.94l47.31-47.93a14.69,14.69,0,0,1,16.9-2.89l45.7,22.24a17.91,17.91,0,0,0,15.45.12l63.75-29.87a21.58,21.58,0,0,0,7.55-5.88L1199,244.6a4.1,4.1,0,0,1,7.27,2.8l-8.31,159.74a12.79,12.79,0,0,1-2.11,6.39l-.11.15a15.47,15.47,0,0,1-11.62,6.87h0a19.11,19.11,0,0,0-10.72,4.4l-1.21,1a17.94,17.94,0,0,0-6.16,10.68l-5.15,29.58a16.36,16.36,0,0,1-7.5,11.11h0a21.58,21.58,0,0,1-16.52,2.62l-20-4.94a16.1,16.1,0,0,0-8.6.24l-71.31,21.85A22.41,22.41,0,0,1,1030.37,498.08Z" transform="translate(-327.25 -144.78)" style="fill:#9ac43a;stroke:#9ac43a;stroke-miterlimit:10;stroke-width:15px"/><path id="Asia" d="M1081.19,551.23,1119,600a15.82,15.82,0,0,0,17.79,5.29l25.66-8.65a10.59,10.59,0,0,0,4.65-16.84l-21.49-25a12.13,12.13,0,0,1,.64-16.51l1.61-1.6a10.92,10.92,0,0,1,13.62-1.45l49.22,32.39a19.29,19.29,0,0,1,5.29,5l40.08,53.23a11.52,11.52,0,0,0,18.28.16l25.33-33a12.9,12.9,0,0,1,16.35-3.37l40.73,22.77a10.6,10.6,0,0,0,15.39-6.25l1.76-5.94a14.41,14.41,0,0,1,12.5-10.42l20.53-2.24a21.3,21.3,0,0,0,13.14-6.74l21-23.56A16.39,16.39,0,0,0,1444,540l-13.31-31.74a13.51,13.51,0,0,1,4.65-16.19l34.15-23.73A19.06,19.06,0,0,0,1477,457.6l12.82-47.46a14,14,0,0,0-6.41-15.71l-18-10.58a14.17,14.17,0,0,1-6.89-14.43l2.24-15.39a17.66,17.66,0,0,1,10.26-13.63l21.17-9.62a16.94,16.94,0,0,0,7.53-6.73l8-13.47a8.21,8.21,0,0,1,12.5-2.08L1559.75,342a10.44,10.44,0,0,0,11.87,1.12h0a13,13,0,0,0,6.41-11.22v-85a33.4,33.4,0,0,0-5.61-18.6l-1-1.44a43.21,43.21,0,0,0-16-14.43l-2.88-1.45a53.8,53.8,0,0,0-30-5.93L1287.69,227.7a8.68,8.68,0,0,1-9.3-10.26l2.24-11.23a6.25,6.25,0,0,0-5.61-7.37l-31.9-2.89a15.37,15.37,0,0,0-13,5.29l-18.92,22.61a18.27,18.27,0,0,0-4.32,11.06l-9.14,175.71a11,11,0,0,1-10.9,10.43H1178a11.14,11.14,0,0,0-10.9,9.13c-2.57,14.43-5,28.86-7.54,43.29a11,11,0,0,1-13.95,8.66c-9.14-2.73-18.27-5.45-27.41-8a11.76,11.76,0,0,0-5.77-.16l-69.61,21.33c-5.62,1.44-8.95,6.73-3.34,8.17l25.33,6.57a16.62,16.62,0,0,1,12.51,16v13.46A17.8,17.8,0,0,0,1081.19,551.23Z" transform="translate(-327.25 -144.78)" style="fill:#9ac43a;stroke:#9ac43a;stroke-miterlimit:10;stroke-width:15px"/><path id="Afrika" d="M1081.91,552l45.3,58c.32.41.65.8,1,1.18L1149,633.2a18.66,18.66,0,0,1,3,21.27L1074.29,807a41.16,41.16,0,0,1-18.6,18.29l-2.41,1.18a33.92,33.92,0,0,1-27.92.84l-4.84-2a35.4,35.4,0,0,1-19.76-20.87l-14-39.53-2.36-94.88a7.6,7.6,0,0,0-8.22-7.39l-61.67,5.06a15,15,0,0,1-11.46-4l-31.24-29.45a14.53,14.53,0,0,1-4.17-13.9l12.24-52.13a17.25,17.25,0,0,1,10.27-12l62.64-25.62a19.26,19.26,0,0,1,9.93-1.24l105.61,14.78A20.89,20.89,0,0,1,1081.91,552Z" transform="translate(-327.25 -144.78)" style="fill:#fbc02d;stroke:#fbc02d;stroke-miterlimit:10;stroke-width:15px"/><path id="South_America" d="M603.27,682,635,638.94a14,14,0,0,1,18.69-3.52l121.61,76.9a13.74,13.74,0,0,1,6.11,14.45l-8.87,42.14a19.6,19.6,0,0,1-5.75,10.25l-87.63,82.52a16.88,16.88,0,0,0-5.31,12.56l.57,39.16A14.61,14.61,0,0,1,665.76,927h0a8.69,8.69,0,0,1-10.27-2.45l-24.1-29.59a18.69,18.69,0,0,1-4.18-12.33L631,757.68a17.67,17.67,0,0,0-2-8.81l-26.87-50.75A15.17,15.17,0,0,1,603.27,682Z" transform="translate(-327.25 -144.78)" style="fill:#3d6a31;stroke:#3e6b32;stroke-miterlimit:10;stroke-width:15px"/><path id="North_America" d="M616.28,646.91,583,625.62h0l-84.34-30.4a18.61,18.61,0,0,1-9.31-7.37l-45.76-70.27a15.83,15.83,0,0,1-2.51-9.93l6.52-78.85a24.28,24.28,0,0,0-1.73-11.24L412.2,335.12a10.27,10.27,0,0,0-9.52-6.39H348.44a12.52,12.52,0,0,1-11.2-6.93l-.82-1.64a15.8,15.8,0,0,1-.55-12.91L362.55,240a16.91,16.91,0,0,1,5.48-7.24l36.56-27.9a12.93,12.93,0,0,1,14.33-.91l66.42,38.41a18,18,0,0,0,2.5,1.21l98.51,39A17,17,0,0,0,600,282l21.39-10.34a10.11,10.11,0,0,1,13.51,4.74l12.84,26.81a11.11,11.11,0,0,1-3.23,13.59L597.1,353.46a9.85,9.85,0,0,0-1.51,14.16l26.24,31a10.25,10.25,0,0,0,16.29-.84l27.46-40.22a4.94,4.94,0,0,1,8.13,0L724,429.83a8,8,0,0,1-2.89,11.73l-46.38,24.22a15.61,15.61,0,0,0-2.57,1.69L582.69,540a16,16,0,0,1-9.84,3.56l-28.08.4a6,6,0,0,0-5.09,9.11L583,625.62Z" transform="translate(-327.25 -144.78)" style="fill:#9ac43a;stroke:#9ac43a;stroke-miterlimit:10;stroke-width:15px"/><path id="Greenland" d="M779.07,360.44l73-46.67a25.27,25.27,0,0,0,11-15.51l25.07-106.54a17.12,17.12,0,0,0-5.45-16.86l-20.81-18a18.62,18.62,0,0,0-19.16-3.2l-95.63,38.53a14.76,14.76,0,0,0-9.25,13.7h0a15.24,15.24,0,0,0,6.23,12.3l.93.68A25.27,25.27,0,0,1,755.38,239l1,106.2A18.52,18.52,0,0,0,764,360h0A13.33,13.33,0,0,0,779.07,360.44Z" transform="translate(-327.25 -144.78)" style="fill:#92bce2;stroke:#92bce2;stroke-miterlimit:10;stroke-width:15px"/></svg>