<?xml version="1.0" encoding="utf-8"?>
<!-- Generator: Adobe Illustrator 25.4.1, SVG Export Plug-In . SVG Version: 6.00 Build 0)  -->
<svg version="1.1" id="Layer_1" xmlns="http://www.w3.org/2000/svg" xmlns:xlink="http://www.w3.org/1999/xlink" x="0px" y="0px"
	 viewBox="0 0 629.4 21.7" style="enable-background:new 0 0 629.4 21.7;" xml:space="preserve">
<style type="text/css">
	.st0{fill:#392816;stroke:#392816;stroke-miterlimit:10;}
	.st1{fill:none;stroke:#392816;stroke-width:0.25;stroke-miterlimit:10;}
	.st2{fill:#392816;stroke:#392816;stroke-width:0.25;stroke-miterlimit:10;}
	.st3{fill:#392816;stroke:#392816;stroke-width:0.5;stroke-miterlimit:10;}
</style>
<path class="st0" d="M-9.4-15.7"/>
<path class="st0" d="M628,20v0.5c0,0.4-0.3,0.7-0.7,0.7H6.2c-0.4,0-0.7-0.3-0.7-0.7V20c0-0.4,0.3-0.7,0.7-0.7h621
	C627.7,19.3,628,19.6,628,20z"/>
<path class="st0" d="M628,1.1v0.7c0,0.3-0.3,0.6-0.6,0.6L6.1,2.5c-0.3,0-0.6-0.3-0.6-0.6V1.1c0-0.3,0.3-0.6,0.6-0.6l621.3,0
	C627.7,0.5,628,0.8,628,1.1z"/>
<path class="st1" d="M626.9,19.8c1.2-1.2,1.5-3.1,1.7-4.7c0.5-3.1,0.6-6.2-0.1-9.3c-0.3-1.5-0.7-3.1-1.7-4.3"/>
<path class="st0" d="M651,23.7"/>
<path class="st1" d="M8,19.4c1.1-1.2,1.3-3.1,1.6-4.7c0.5-3.1,0.5-6.2,0-9.3C9.3,3.9,9,2.3,8,1.1"/>
<path class="st2" d="M9.3,16.5h619.2c0,0,0,0,0,0C421.7,16.5,216.2,16.5,9.3,16.5z"/>
<path class="st3" d="M7.6,16.5"/>
<path class="st2" d="M628.8,14.3H9.7C216.1,14.3,422.4,14.3,628.8,14.3C628.8,14.3,628.8,14.3,628.8,14.3z"/>
<path class="st3" d="M8.1,13.7"/>
<path class="st2" d="M629,12C422,12,216.2,12,10,12L629,12C629,12,629,12,629,12z"/>
<path class="st2" d="M629.1,9.8L10,9.8C216.1,9.8,422.8,9.8,629.1,9.8C629.1,9.8,629.1,9.8,629.1,9.8z"/>
<path class="st2" d="M628.8,7.5C423,7.4,216,7.4,9.8,7.5L628.8,7.5C628.8,7.5,628.8,7.5,628.8,7.5z"/>
<path class="st2" d="M628.3,5.3C422,5.3,215.8,5.3,9.5,5.3L628.3,5.3C628.3,5.3,628.3,5.3,628.3,5.3z"/>
<ellipse class="st0" cx="5.3" cy="10.9" rx="4.7" ry="10.4"/>
</svg>
